<?xml version="1.0" encoding="UTF-8" standalone="no"?>
<!-- Created with Inkscape (http://www.inkscape.org/) -->

<svg
   width="16.0px"
   height="16.0px"
   viewBox="0 0 16.0 16.0"
   version="1.1"
   id="SVGRoot"
   sodipodi:docname="MSlogo.svg"
   xml:space="preserve"
   inkscape:version="1.2.1 (9c6d41e410, 2022-07-14)"
   xmlns:inkscape="http://www.inkscape.org/namespaces/inkscape"
   xmlns:sodipodi="http://sodipodi.sourceforge.net/DTD/sodipodi-0.dtd"
   xmlns="http://www.w3.org/2000/svg"
   xmlns:svg="http://www.w3.org/2000/svg"><sodipodi:namedview
     id="namedview309"
     pagecolor="#505050"
     bordercolor="#ffffff"
     borderopacity="1"
     inkscape:showpageshadow="0"
     inkscape:pageopacity="0"
     inkscape:pagecheckerboard="1"
     inkscape:deskcolor="#505050"
     inkscape:document-units="px"
     showgrid="true"
     inkscape:zoom="34.147147"
     inkscape:cx="6.4866328"
     inkscape:cy="9.9569081"
     inkscape:window-width="1920"
     inkscape:window-height="1027"
     inkscape:window-x="-8"
     inkscape:window-y="-8"
     inkscape:window-maximized="1"
     inkscape:current-layer="layer3"><inkscape:grid
       type="xygrid"
       id="grid315" /></sodipodi:namedview><defs
     id="defs304" /><g
     inkscape:label="Layer 1"
     inkscape:groupmode="layer"
     id="layer1"><ellipse
       style="fill:#83c499;fill-opacity:1"
       id="path1675"
       cx="8.0094538"
       cy="7.9948115"
       rx="8.0094538"
       ry="7.9948115" /></g><g
     inkscape:groupmode="layer"
     id="layer3"
     inkscape:label="Layer 3"
     style="fill:#4d4d4d"><path
       style="fill:#4d4d4d;fill-opacity:1"
       d="M 1.0146892,6.8444874 4.4776752,1.7588178 7.9879513,6.8011663 11.783319,1.7029564 15.057145,6.7886259 14.041083,6.8068664 11.796831,3.3293978 7.9811955,7.8009717 4.531721,3.1276127 2.0510178,6.7692454 Z"
       id="path2075"
       sodipodi:nodetypes="ccccccccccc" /><path
       style="fill:#4d4d4d;fill-opacity:1"
       d="M 10.172754,9.5300158 C 10.0489,9.0509503 9.3839356,8.893149 8.9107836,8.7483358 8.4254801,8.5998035 7.8892668,8.6004972 7.3893938,8.6882943 6.7833938,8.7947315 6.1098432,8.9448152 5.6801947,9.3852321 5.369721,9.7034873 5.0818408,10.205878 5.2072938,10.632424 c 0.1240294,0.421706 0.6635994,0.594978 1.0606492,0.78358 0.7348936,0.349081 1.63119,0.252969 2.3645047,0.605355 0.4618715,0.221947 1.0093363,0.461219 1.2281913,0.924564 0.192556,0.407666 0.21328,0.991282 -0.058099,1.351314 -0.3180711,0.421977 -0.9758175,0.480588 -1.503825,0.501613 -0.7699948,0.03066 -1.4792725,-0.647751 -2.2442527,-0.554814 -0.1475042,0.01792 -0.3971953,0.05892 -0.3945345,0.207485 0.016709,0.932929 1.5899084,1.186107 2.5225887,1.213371 0.6998981,0.02046 1.3876086,-0.371931 1.9429465,-0.7984 0.120855,-0.09281 0.221622,-0.221703 0.276985,-0.36367 0.189042,-0.48476 0.277077,-1.051077 0.144573,-1.554239 -0.1402,-0.532388 -0.492922,-1.038964 -0.9430997,-1.355875 C 8.6784815,10.941228 7.0858524,11.546447 6.3260423,10.707666 6.1437911,10.506472 6.0531066,10.137403 6.1922788,9.9043253 6.4365232,9.4952779 7.0709194,9.4915842 7.5447755,9.4422335 c 0.5293699,-0.055132 1.079926,0.02564 1.5848937,0.193805 0.271506,0.090418 0.4686561,0.5037425 0.7444812,0.4275105 0.1964386,-0.05429 0.3496166,-0.3362175 0.2986036,-0.5335332 z"
       id="path2306"
       sodipodi:nodetypes="aaaaaaaaaaaaaaaaaaaaaaa" /></g><g
     inkscape:groupmode="layer"
     id="layer2"
     inkscape:label="Layer 2"><path
       style="fill:#ffffff;fill-opacity:1"
       id="path1835"
       d="M 4.3671859,7.6907848 C 4.4829681,7.5034583 4.6068995,7.3212293 4.7410758,7.1465358 4.7947804,7.076614 4.8464177,7.0047427 4.9059688,6.9397281 4.9768804,6.8623107 5.0564525,6.7932962 5.1316944,6.7200803 5.2231079,6.65221 5.3102575,6.5781836 5.4059349,6.5164693 5.6746661,6.3431311 5.9907288,6.2015435 6.3148083,6.1827588 c 0.2516432,-0.014586 0.3222791,0.028419 0.5553725,0.098758 0.078748,0.048696 0.1630444,0.089394 0.2362451,0.1460893 0.2374053,0.1838738 0.4031249,0.4401205 0.5591494,0.691373 0.053928,0.086843 0.1019771,0.1773039 0.1574155,0.2631901 0.055303,0.085677 0.1164102,0.1674659 0.1746154,0.2511988 0.1862987,0.2182514 0.3858983,0.3870482 0.6712217,0.4569172 0.2576256,0.063086 0.526252,0.033371 0.7856253,0.00755 0.2669767,-0.042334 0.1405168,-0.019499 0.3796505,-0.066987 0,0 -2.532e-4,-1.765e-4 -2.532e-4,-1.765e-4 v 0 C 9.5941945,8.0778822 9.7209875,8.0552649 9.453192,8.0969377 9.1934171,8.1226088 8.9253662,8.1517932 8.6673214,8.089105 8.3895627,8.0216276 8.1793997,7.8483324 7.9993439,7.634124 7.9411356,7.5503944 7.8800229,7.4686109 7.824719,7.3829352 7.7692794,7.2970491 7.721233,7.2065854 7.6673082,7.1197402 7.5114012,6.8686543 7.3456726,6.6118686 7.1082217,6.4283014 7.0339643,6.3708949 6.948509,6.329658 6.8686526,6.2803363 6.6355329,6.210033 6.5649145,6.1670478 6.3132569,6.1816727 5.9891664,6.2005069 5.6731136,6.342135 5.4043701,6.5154785 5.308683,6.5771981 5.2215187,6.6512235 5.1300931,6.719096 5.0548366,6.7923124 4.975249,6.8613257 4.9043238,6.9387453 4.8447653,7.0037574 4.7931292,7.0756341 4.7394122,7.1455503 4.6052048,7.32023 4.4811776,7.5024068 4.3653612,7.6897239 c 0,0 0.00182,0.00106 0.00182,0.00106 z" /><path
       style="fill:#ffffff;fill-opacity:1"
       id="path1963"
       d="M 0.53534565,7.8408767 C 0.59070662,7.7198177 0.65666638,7.6042486 0.7287131,7.4924654 0.80164021,7.3823571 0.87513843,7.2726275 0.94758016,7.1621988 1.0367539,7.0260688 1.1242048,6.8888408 1.2149015,6.7537107 1.2828028,6.6572743 1.3483386,6.5593403 1.4109762,6.4594152 1.4607047,6.3786214 1.5135531,6.2998589 1.5686964,6.2226797 c 0.041406,-0.05689 0.085011,-0.112102 0.1292028,-0.1668389 0.060082,-0.075718 0.1221923,-0.1498152 0.184739,-0.2235023 0.07164,-0.083916 0.14525,-0.1661098 0.2194541,-0.2477555 0.067455,-0.075535 0.1368534,-0.149287 0.2072511,-0.2220757 0.070694,-0.072343 0.1444701,-0.1415615 0.2173437,-0.211679 0.06818,-0.066249 0.135171,-0.1336746 0.1986596,-0.2044459 0.053051,-0.059319 0.1014257,-0.1225534 0.1467874,-0.1878796 0.044382,-0.067414 0.08712,-0.1359065 0.1300396,-0.2042588 0.044441,-0.06841 0.086408,-0.1382893 0.1258068,-0.2097083 0.030023,-0.054912 0.059485,-0.110174 0.087803,-0.1659879 0.030359,-0.057932 0.059757,-0.1163181 0.086864,-0.1758488 0.023744,-0.051609 0.044386,-0.1045947 0.062503,-0.1584208 0.016015,-0.048916 0.033848,-0.097195 0.052997,-0.1449624 0.020655,-0.050027 0.044134,-0.098846 0.067676,-0.1475646 0.023424,-0.051793 0.05333,-0.100005 0.084721,-0.1472348 0.038264,-0.054689 0.080481,-0.1064568 0.1207979,-0.1596241 0.042117,-0.058549 0.087301,-0.1147555 0.1324278,-0.1709826 0.034674,-0.042367 0.069285,-0.084781 0.1037967,-0.1272785 0.01757,-0.022722 0.036647,-0.044216 0.054223,-0.066925 0.00759,-0.00979 0.015632,-0.019194 0.023752,-0.028531 0.00392,-0.00378 0.00765,-0.0077 0.010925,-0.012023 0.00217,-0.00311 0.00325,-0.00665 0.00437,-0.010214 -4.547e-4,0.002 -0.00725,0.011414 -0.00115,0.00655 0.00177,-0.00307 0.00287,-0.00221 0.00487,-0.00155 0.00197,-0.00114 0.00846,-0.01234 0.00442,-0.00404 0.00118,0.00267 0.00526,-0.00391 0.00701,-0.00558 0.00314,-0.00262 0.0066,-0.00432 0.0095,-0.00781 0.00673,-0.00571 0.012281,-0.012746 0.017825,-0.019581 0.021536,-0.029359 0.041671,-0.059746 0.061809,-0.090075 0.036283,-0.056801 0.072804,-0.1134407 0.1105137,-0.1693085 0.02239,-0.034133 0.04673,-0.066891 0.07144,-0.099359 0.020289,-0.026194 0.040119,-0.05272 0.059848,-0.079335 0.0198,-0.024936 0.039656,-0.049818 0.059437,-0.07477 0.00928,-0.012428 0.019534,-0.024131 0.028623,-0.0367 0.00848,-0.011899 0.016505,-0.02379 0.023054,-0.036881 0.00911,-0.019027 0.01441,-0.039429 0.02033,-0.059572 0.00454,-0.012838 0.00664,-0.026565 0.011607,-0.039235 0.00887,-0.00782 0.017276,-0.00371 0.026948,8.851e-4 0.055166,0.037259 0.1368538,0.061375 -0.1242101,-0.067581 -0.00847,-0.00418 0.013815,0.012893 0.020334,0.019726 0.0198,0.020753 0.029609,0.033741 0.048009,0.056307 0.057249,0.073332 0.1106533,0.1495805 0.1645832,0.2253628 0.053511,0.078525 0.1136341,0.1520444 0.1745814,0.2248202 0.057278,0.068487 0.1157635,0.1359312 0.1753083,0.2024521 0.066089,0.07358 0.1330567,0.146359 0.1996013,0.2195243 0.097825,0.1021183 0.1681253,0.2240512 0.2316488,0.3492773 0.082204,0.1660919 0.1173171,0.3490637 0.150448,0.5298722 0.02705,0.1557059 0.04137,0.3131745 0.056369,0.4703757 0.00866,0.1342665 0.041856,0.2635815 0.089784,0.3887189 0.049382,0.1233172 0.1315419,0.2262877 0.2193413,0.3240569 0.082133,0.088875 0.171732,0.1702358 0.2633026,0.2491689 0.078603,0.064304 0.1528866,0.133315 0.2217928,0.2078812 0.058862,0.065576 0.1111651,0.1365308 0.1584416,0.2107938 0.041738,0.068029 0.07234,0.1419586 0.1046604,0.2147057 0.030163,0.070474 0.071023,0.135304 0.1147377,0.1979814 0.032339,0.044866 0.06595,0.088791 0.099415,0.1328174 0.016943,0.021846 0.034192,0.04344 0.052221,0.0644 0.021618,0.025913 0.040158,0.054155 0.059126,0.082006 0.019507,0.028721 0.037876,0.058187 0.055775,0.087928 0.011453,0.018727 0.022587,0.037638 0.033319,0.056787 0.010721,0.017705 0.021303,0.035422 0.030587,0.053931 0.014675,0.032822 0.029172,0.06572 0.044022,0.098465 0.020268,0.04472 0.040339,0.08952 0.061209,0.1339629 0.017787,0.039775 0.038207,0.078246 0.058612,0.1167108 0.022858,0.043043 0.049385,0.083949 0.072772,0.1266914 0.02757,0.05234 0.046821,0.1083827 0.065855,0.1642216 0.018289,0.052787 0.03794,0.1051092 0.059766,0.1565378 0.020845,0.046146 0.044131,0.091101 0.064151,0.137617 0.020934,0.050936 0.040265,0.1025103 0.060025,0.1539078 0.016813,0.045145 0.033442,0.090359 0.050961,0.1352367 0.012892,0.03271 0.026323,0.065202 0.040104,0.097547 0.00773,0.019554 0.017121,0.038328 0.0263,0.057217 0.00678,0.013881 0.015172,0.026796 0.024193,0.039295 0.00753,0.010054 0.016815,0.018388 0.026103,0.026738 0.063234,0.049228 0.1322859,0.1133909 0.2137673,0.1118465 0.021332,-0.00614 0.037337,-0.022766 0.05339,-0.037253 0.022744,-0.018968 0.044194,-0.039384 0.066443,-0.058902 0.018338,-0.015991 0.035751,-0.033084 0.05184,-0.051335 0.013287,-0.014631 0.026231,-0.029471 0.038639,-0.04484 0.011582,-0.014848 0.023707,-0.029247 0.035661,-0.043794 0.020233,-0.023091 0.042766,-0.044091 0.065413,-0.064781 0.019784,-0.017702 0.04023,-0.034626 0.060402,-0.051881 0.020398,-0.018224 0.040637,-0.036594 0.060229,-0.055686 0.02627,-0.025043 0.051003,-0.051567 0.073758,-0.079833 0.026995,-0.034142 0.053391,-0.068744 0.080134,-0.1030823 0.031959,-0.041654 0.065167,-0.082354 0.096188,-0.1247169 0.029045,-0.041831 0.055345,-0.085486 0.083162,-0.1281368 0.029762,-0.042705 0.056619,-0.087245 0.082371,-0.1324468 0.024279,-0.042443 0.043693,-0.087354 0.062497,-0.1324096 0.016668,-0.042869 0.036264,-0.084488 0.053853,-0.126974 0.022134,-0.050618 0.043065,-0.101735 0.06413,-0.1528047 0.024954,-0.058185 0.049698,-0.1164233 0.077925,-0.1731118 0.024474,-0.049857 0.052213,-0.097976 0.077707,-0.1473065 0.028245,-0.052726 0.04966,-0.1084954 0.069008,-0.1649559 0.013954,-0.048344 0.032142,-0.095214 0.049538,-0.1423788 0.020872,-0.052118 0.044949,-0.1028239 0.066349,-0.1547207 0.026513,-0.065773 0.046198,-0.1338968 0.067074,-0.2015766 0.016257,-0.051225 0.029786,-0.103327 0.049935,-0.1532135 0.016603,-0.039974 0.041146,-0.075304 0.067465,-0.1093416 0.032368,-0.040336 0.069177,-0.076443 0.1084034,-0.1099889 0.047835,-0.039279 0.098668,-0.07462 0.1480171,-0.1119186 0.048601,-0.039349 0.098411,-0.077149 0.1474656,-0.115923 0.061184,-0.049423 0.1210257,-0.1004581 0.1823937,-0.1496628 0.07154,-0.058388 0.145644,-0.1134931 0.219423,-0.1689892 0.07078,-0.053764 0.141698,-0.1073323 0.212411,-0.1611802 0.06227,-0.047853 0.116155,-0.1043393 0.163893,-0.166395 0.03836,-0.053539 0.07045,-0.1112225 0.101228,-0.1693488 0.02411,-0.04604 0.04829,-0.092068 0.0756,-0.136304 0.02464,-0.039241 0.0517,-0.076874 0.07714,-0.1155757 0.02337,-0.035093 0.04105,-0.07345 0.05762,-0.1120895 0.01266,-0.030367 0.0223,-0.061793 0.03088,-0.093514 0.0073,-0.029651 0.01501,-0.059202 0.02324,-0.088616 0.0083,-0.029565 0.01808,-0.05848 0.0311,-0.086302 0.02063,-0.03779 0.04706,-0.071925 0.07292,-0.1062068 0.0277,-0.039644 0.053,-0.081027 0.07677,-0.1231371 0.02248,-0.039737 0.0395,-0.082143 0.05737,-0.1240519 0.02008,-0.047437 0.04266,-0.093792 0.06556,-0.1399204 0.0294,-0.05955 0.06033,-0.1182979 0.08849,-0.1784519 0.02359,-0.051384 0.04686,-0.1029299 0.06818,-0.1553022 0.02048,-0.050892 0.03691,-0.1033003 0.05076,-0.1563452 0.01542,-0.061137 0.02526,-0.1234739 0.03652,-0.1854617 0.0073,-0.042384 0.01739,-0.084036 0.03727,-0.122328 0.01854,-0.032549 0.04768,-0.056203 0.07451,-0.081506 0.02518,-0.024839 0.0506,-0.049462 0.07504,-0.075041 0.02347,-0.025346 0.04985,-0.047641 0.076,-0.070113 0.02124,-0.019704 0.04361,-0.038158 0.06356,-0.059197 0.014,-0.012345 0.02667,-0.025871 0.03666,-0.041659 0.0097,-0.016061 0.01714,-0.033328 0.02469,-0.050481 0.02978,-0.07324 0.01821,-0.011856 -0.170226,-0.1004985 0.03008,0.0683 0.03827,0.1441262 0.04923,0.217329 0.01078,0.079855 0.02135,0.159697 0.03525,0.2390793 0.01007,0.053921 0.02602,0.1064615 0.0421,0.1588221 0.01299,0.045973 0.02692,0.091622 0.04396,0.1362661 0.02604,0.064 0.07072,0.1173999 0.113728,0.1705431 0.07599,0.089191 0.148112,0.1814967 0.217871,0.2756112 0.07591,0.099718 0.131997,0.2114657 0.183714,0.3250041 0.04978,0.1210343 0.09897,0.2421987 0.154704,0.3606442 0.054,0.1181471 0.127028,0.225591 0.204183,0.3295318 0.1149,0.1423926 0.241194,0.2750385 0.36441,0.4101545 0.105756,0.1144859 0.209485,0.2307161 0.304234,0.3545254 0.07122,0.096199 0.13396,0.1982134 0.196859,0.2999271 0.06841,0.1113262 0.131257,0.2258561 0.192455,0.3412566 0.05681,0.1123695 0.118037,0.2222448 0.188994,0.3262948 0.04016,0.05828 0.08709,0.1113639 0.130729,0.1669613 0.03742,0.048027 0.06623,0.1018733 0.09673,0.154355 0.04288,0.077491 0.09138,0.1514404 0.143856,0.2227051 0.04165,0.055379 0.08543,0.109108 0.129421,0.1626286 0.02207,0.025384 0.04246,0.05179 0.05635,0.082521 0.01478,0.043589 0.02368,0.08889 0.03559,0.133328 0.0202,0.070348 0.05326,0.1358001 0.08595,0.2009443 0.02344,0.045772 0.04678,0.091576 0.0697,0.1376062 0.0098,0.020727 0.01996,0.041265 0.02956,0.062063 0.01019,0.020999 0.02129,0.04155 0.03286,0.061823 0.016,0.028839 0.03161,0.057871 0.04798,0.086502 0.01787,0.029187 0.03427,0.058923 0.04801,0.090272 0.01188,0.031155 0.02332,0.062495 0.03326,0.094326 0.01525,0.045136 0.0086,0.091184 -1.74e-4,0.1367976 -0.0092,0.048582 -0.0247,0.095694 -0.03517,0.1439371 -0.0108,0.049413 0.02393,0.068032 0.06022,0.09727 0,0 0.0475,0.025878 0.0475,0.025878 v 0 c 0.04005,0.012301 0.0752,0.032388 0.09172,-0.014687 0.01576,-0.046728 0.02842,-0.094502 0.04167,-0.141983 0.01075,-0.046596 0.02295,-0.094454 0.01427,-0.1424503 -0.008,-0.033378 -0.02031,-0.065406 -0.03299,-0.097265 -0.01201,-0.032603 -0.02564,-0.064444 -0.04572,-0.093038 -0.01674,-0.028487 -0.03304,-0.057164 -0.04855,-0.08634 -0.01091,-0.01994 -0.02212,-0.039737 -0.03245,-0.059985 -0.01039,-0.020822 -0.02042,-0.041819 -0.03022,-0.06294 -0.02393,-0.046285 -0.04789,-0.09255 -0.07214,-0.1386689 -0.03247,-0.063773 -0.06589,-0.1275396 -0.08703,-0.1962004 -0.01272,-0.04429 -0.02089,-0.089564 -0.03238,-0.134167 -0.01047,-0.034125 -0.02863,-0.063527 -0.0528,-0.089941 -0.04498,-0.053236 -0.0894,-0.1069819 -0.131886,-0.1622393 -0.05288,-0.070154 -0.103157,-0.1422687 -0.144739,-0.2198411 -0.0296,-0.053129 -0.05744,-0.1075932 -0.09358,-0.1567118 -0.0431,-0.056652 -0.09113,-0.1093125 -0.133255,-0.166736 C 14.311076,5.9180962 14.249226,5.8090077 14.192743,5.6966435 14.132526,5.5808383 14.07011,5.4661722 14.00242,5.3545277 13.939535,5.2519213 13.87607,5.1495473 13.805482,5.0519858 13.711015,4.9265946 13.606732,4.8094364 13.499865,4.6944985 13.377161,4.5604085 13.25184,4.428381 13.13686,4.2875081 13.059588,4.1849429 12.985605,4.0793686 12.931071,3.9625688 12.874965,3.8445578 12.825908,3.7236278 12.776647,3.6026361 12.726239,3.4874159 12.670853,3.3740902 12.595208,3.2729184 12.525662,3.178057 12.453576,3.085082 12.377121,2.9956541 12.332231,2.9432028 12.28475,2.8912479 12.254065,2.828767 c -0.01991,-0.043633 -0.03293,-0.089804 -0.04714,-0.135532 -0.01782,-0.053459 -0.03888,-0.1059171 -0.0519,-0.1608869 -0.01946,-0.079994 -0.03494,-0.1607588 -0.04515,-0.2424984 -0.01117,-0.074851 -0.01963,-0.1512653 -0.0444,-0.223103 -0.115375,-0.07178 -0.169238,-0.1903758 -0.218774,-0.097628 -0.0089,0.01559 -0.01626,0.031966 -0.02518,0.047538 -0.0093,0.014251 -0.02046,0.026852 -0.03267,0.038735 -0.02023,0.019944 -0.04208,0.03819 -0.06302,0.057373 -0.0264,0.023003 -0.0524,0.046557 -0.07636,0.072116 -0.02472,0.024859 -0.04955,0.049602 -0.07448,0.074253 -0.02868,0.026928 -0.05872,0.053257 -0.07843,0.087893 -0.0209,0.040214 -0.03333,0.083254 -0.04078,0.1279584 -0.01136,0.061456 -0.02085,0.1233043 -0.0357,0.1840627 -0.01347,0.052156 -0.02929,0.1038436 -0.04984,0.1536922 -0.0203,0.05241 -0.04289,0.1039126 -0.06635,0.1549762 -0.02729,0.060344 -0.05816,0.1189109 -0.08829,0.1778664 -0.02288,0.046574 -0.04607,0.093065 -0.06652,0.1407758 -0.01761,0.041099 -0.03388,0.082914 -0.0561,0.1218409 -0.02374,0.041088 -0.04767,0.08219 -0.07477,0.1211744 -0.02633,0.035683 -0.05274,0.071609 -0.07247,0.1114959 -0.01384,0.028789 -0.02415,0.058817 -0.03308,0.089468 -0.0082,0.029504 -0.01661,0.058959 -0.02332,0.088852 -0.0081,0.030833 -0.01683,0.061528 -0.02877,0.091163 -0.01585,0.037576 -0.03243,0.074971 -0.05497,0.1091244 -0.02551,0.038876 -0.05099,0.077761 -0.07588,0.117037 -0.0275,0.044735 -0.05181,0.091156 -0.07583,0.1378386 -0.02998,0.057206 -0.0606,0.11444 -0.09892,0.1665979 -0.04583,0.061074 -0.09853,0.1159734 -0.159295,0.1625514 -0.07046,0.054498 -0.142964,0.1062913 -0.214083,0.1599277 -0.07366,0.055837 -0.147118,0.1119376 -0.2191303,0.1699026 -0.061358,0.049148 -0.1212166,0.1000295 -0.1820994,0.1497472 -0.048523,0.038786 -0.096451,0.078288 -0.145072,0.1169538 -0.04917,0.038003 -0.1001423,0.073663 -0.1481449,0.1131839 -0.040332,0.034385 -0.078437,0.071443 -0.1108181,0.1135705 -0.027517,0.035496 -0.052341,0.073058 -0.070105,0.1144939 -0.02043,0.05061 -0.033972,0.1033259 -0.049618,0.1555491 -0.019941,0.067374 -0.040547,0.134564 -0.065915,0.2001381 -0.020397,0.052544 -0.043474,0.1039237 -0.064806,0.1560826 -0.01808,0.047208 -0.036141,0.094478 -0.049703,0.1432345 -0.017831,0.055948 -0.038883,0.1108408 -0.065873,0.1630926 -0.025189,0.049627 -0.052468,0.098139 -0.077281,0.1479488 -0.027761,0.057367 -0.053094,0.1158132 -0.078396,0.1743 -0.021325,0.050872 -0.042872,0.101637 -0.06518,0.1520866 -0.018186,0.042213 -0.036919,0.084172 -0.055316,0.1262907 -0.018351,0.044363 -0.038104,0.088219 -0.061368,0.1302536 -0.02497,0.045118 -0.052436,0.088797 -0.081519,0.1313786 -0.027558,0.042373 -0.053332,0.085913 -0.082538,0.1271939 -0.030909,0.042209 -0.063777,0.082921 -0.095488,0.1245252 -0.02633,0.03441 -0.052199,0.069176 -0.079222,0.1030486 -0.022453,0.027451 -0.046814,0.053154 -0.072336,0.077777 -0.019543,0.018648 -0.039764,0.036545 -0.059931,0.054513 -0.020178,0.017494 -0.04059,0.034728 -0.060258,0.052801 -0.023112,0.021549 -0.046589,0.042954 -0.067408,0.066753 -0.012214,0.014585 -0.024704,0.028938 -0.036433,0.043928 -0.011788,0.015337 -0.025228,0.029254 -0.037688,0.044033 -0.015689,0.017611 -0.032759,0.033785 -0.050616,0.049198 -0.021993,0.019737 -0.043791,0.039681 -0.066405,0.058716 -0.012585,0.010589 -0.026553,0.026359 -0.044521,0.023085 -0.084804,-0.020279 0.2290971,0.1350021 0.1485181,0.089107 -0.00998,-0.00609 -0.018815,-0.014004 -0.027227,-0.022075 -0.010021,-0.0099 -0.017841,-0.021766 -0.024414,-0.03419 -0.010031,-0.018038 -0.018548,-0.036935 -0.026825,-0.055827 -0.014282,-0.032166 -0.028618,-0.064326 -0.041165,-0.097222 -0.0179,-0.044903 -0.035063,-0.090086 -0.051883,-0.1354037 C 7.7958516,7.7399886 7.7764625,7.6883064 7.755816,7.6371226 7.7365189,7.589933 7.7134674,7.5446325 7.6910945,7.4988518 7.6681083,7.4482767 7.648368,7.396361 7.6303797,7.3438039 7.6107914,7.2873869 7.5921982,7.2303974 7.5662135,7.1764983 7.543132,7.1335557 7.5169067,7.0925445 7.4932735,7.0499139 7.4728329,7.0116177 7.451918,6.9735225 7.4339131,6.9339977 7.4130273,6.8898047 7.3924292,6.8455218 7.3730573,6.8006379 7.3585474,6.7678614 7.3437642,6.7352107 7.3299143,6.7021458 7.3211215,6.6822062 7.31095,6.6629142 7.298238,6.6451533 7.2856868,6.6263133 7.2743708,6.6067174 7.2624624,6.5874705 7.2442834,6.55731 7.2260229,6.5271898 7.2062372,6.4980425 7.1868847,6.4698208 7.1683426,6.4410355 7.1473449,6.4139813 7.1297669,6.3922381 7.110625,6.3718067 7.09344,6.3497309 7.0588011,6.3053467 7.0230779,6.2617965 6.9901104,6.2161243 6.9460567,6.1547247 6.9044519,6.0913036 6.8740098,6.0218505 6.8412311,5.9487461 6.8114267,5.87399 6.770917,5.8046666 6.7235238,5.7292081 6.6712588,5.6569194 6.6123528,5.5899438 6.5439084,5.5144085 6.4706537,5.4435615 6.391105,5.3796679 6.2989422,5.3011218 6.2080945,5.2208046 6.1253785,5.1321684 6.0372989,5.0365787 5.9543698,4.9358834 5.9033084,4.8148532 5.8544638,4.6914917 5.8201538,4.5640149 5.8111512,4.4310278 5.7954384,4.272907 5.7801006,4.1145982 5.7529692,3.9579191 5.7197462,3.7761241 5.6865007,3.5912001 5.6057756,3.4233791 5.5423624,3.2969813 5.4734743,3.172627 5.3756913,3.0689946 5.3088577,2.9954428 5.2410471,2.9227791 5.1745406,2.8489248 5.1144517,2.7825229 5.05574,2.7149067 4.9978714,2.6465608 4.9363409,2.5743012 4.8756608,2.5011828 4.8218711,2.4228702 4.7680315,2.3471565 4.7148654,2.2709119 4.6586722,2.1969163 4.5871568,2.1058724 4.5009764,2.0237799 4.381979,1.9951993 c -0.017972,-2.85e-5 -0.032548,0.00533 -0.042628,0.020997 -0.00559,0.013138 -0.00907,0.0271 -0.013178,0.04074 -0.00552,0.01901 -0.010667,0.03821 -0.019003,0.056239 -0.00599,0.01187 -0.013347,0.022888 -0.020688,0.033961 -0.0098,0.011987 -0.019486,0.024044 -0.028686,0.036506 -0.019389,0.025357 -0.03831,0.051072 -0.058315,0.075961 C 4.179798,2.2861013 4.160547,2.3129213 4.140759,2.3393423 4.115857,2.3721243 4.092774,2.4061413 4.07051,2.4407662 4.033293,2.4970102 3.996925,2.5538288 3.960863,2.6108155 3.941546,2.6408905 3.92241,2.6711605 3.90084,2.6996965 c -0.00512,0.00633 -0.010316,0.012593 -0.015854,0.018563 -0.00274,0.00203 -0.00569,0.00391 -0.00802,0.00648 -0.00413,9.13e-4 8.15e-4,-0.00166 -0.00408,9.025e-4 -0.011313,0.014725 -4.819e-4,9.023e-4 -0.00329,0.00188 -0.00159,0.00113 -0.00797,0.00647 -0.00661,0.0041 -0.00325,0.00148 -0.00748,0.00499 -0.00926,0.010477 4.088e-4,6.022e-4 0.00115,-3.229e-4 6.043e-4,8.903e-4 -0.00323,0.00382 -0.00676,0.00734 -0.010089,0.011082 -0.00815,0.00971 -0.016078,0.019625 -0.023712,0.029752 -0.017195,0.022791 -0.035418,0.044761 -0.052783,0.067426 -0.033316,0.043303 -0.068035,0.085491 -0.1021249,0.1281838 -0.044885,0.056625 -0.089829,0.1132421 -0.1326777,0.1714339 -0.040132,0.053705 -0.082961,0.1054004 -0.1211614,0.160539 -0.032439,0.047595 -0.061994,0.097016 -0.086432,0.1492515 -0.02386,0.049097 -0.047736,0.098259 -0.067917,0.1490153 -0.01882,0.048341 -0.036367,0.097124 -0.051614,0.1467288 -0.018372,0.053234 -0.03704,0.1064005 -0.059932,0.1579116 -0.026395,0.059562 -0.055211,0.1179335 -0.085618,0.1755527 -0.028393,0.055593 -0.057431,0.110854 -0.086785,0.1659449 -0.038812,0.071327 -0.080217,0.141121 -0.1241302,0.2094395 C 2.8064504,4.5332973 2.7632814,4.6012136 2.7184678,4.6680376 2.6733591,4.7325991 2.626286,4.7958289 2.5736547,4.8545334 2.5103776,4.9248077 2.4449589,4.9930877 2.3765658,5.0584269 2.3035238,5.1285917 2.2300106,5.1983008 2.1593863,5.2709253 2.0885877,5.3436713 2.0186153,5.4172043 1.9512981,5.4932097 1.877405,5.575258 1.8041577,5.6578894 1.7327545,5.7421246 1.6697233,5.815813 1.606313,5.8892375 1.5452865,5.9645974 1.5012642,6.0198052 1.4581181,6.0757594 1.4170909,6.1332376 1.3621861,6.2109591 1.3095485,6.2902425 1.2601696,6.3716073 1.1976049,6.4712461 1.1347643,6.5706924 1.0685629,6.6679803 0.97897328,6.8038629 0.89144829,6.9410737 0.80496246,7.0789523 0.73466064,7.1906753 0.6647462,7.3026306 0.59186695,7.4127075 0.52119962,7.52625 0.45619577,7.6431628 0.39973413,7.764485 c 0,0 0.13561152,0.076392 0.13561152,0.076392 z" /><path
       style="fill:#ffffff;fill-opacity:1"
       id="path1965"
       d="m 8.0618189,8.1548969 c 0.1089612,0.050602 0.2202001,0.095965 0.3322164,0.1392943 0.100444,0.038355 0.2028574,0.071133 0.3044533,0.106223 0.1011759,0.035531 0.2030102,0.069136 0.3042131,0.1045856 0.098861,0.035196 0.1938846,0.079784 0.2877036,0.1265258 0.051777,0.029171 0.2103082,0.1137438 -0.032966,-0.020813 -0.012379,-0.00685 0.024177,0.014701 0.036093,0.022326 0.027317,0.017481 0.03504,0.023394 0.060944,0.041754 0.046926,0.03286 0.090388,0.069138 0.1228737,0.1165631 0.0418,0.070984 0.033748,0.1457926 0.016099,0.222696 C 9.4494049,9.1577107 9.3544348,9.2297032 9.2265656,9.2969219 9.0372042,9.3857473 8.8311557,9.4126569 8.624809,9.4256886 8.3410767,9.4354752 8.0587701,9.3994804 7.7781941,9.362074 7.4974313,9.3168943 7.2153461,9.2902921 6.9310431,9.2906369 6.6092089,9.3039489 6.2946677,9.3745041 5.9914109,9.4799171 5.8127932,9.5522563 5.618544,9.6355646 5.5041814,9.7998749 c -0.020891,0.030015 -0.035958,0.06369 -0.053937,0.095535 -0.090452,0.1973091 -0.097708,0.3969131 -0.067683,0.6079691 0.025783,0.147546 0.086759,0.280591 0.1830513,0.394441 0.062101,0.06489 0.137099,0.115239 0.2148624,0.159359 0.2540248,0.144127 0.170047,0.102799 0.3246474,0.174805 0.2224465,0.101687 0.4601424,0.158903 0.6980261,0.210804 0.3952459,0.07359 0.7958594,0.115614 1.1885233,0.203725 0.077536,0.0174 0.1542187,0.0384 0.231328,0.0576 0.2575499,0.06639 0.501036,0.169851 0.7351228,0.294411 0.010473,0.0056 -0.041576,-0.02256 -0.032026,-0.01552 0.042559,0.03136 0.087617,0.05919 0.1314261,0.08878 0.2538156,0.180092 0.4493023,0.392743 0.6328884,0.641544 0.1362094,0.203249 0.2564812,0.42698 0.2904288,0.672903 0.00738,0.05345 0.00719,0.107683 0.010779,0.161524 -0.00747,0.238678 -0.082231,0.46595 -0.2238211,0.6594 -0.1007987,0.137718 -0.1579232,0.178315 -0.2837798,0.293469 -0.3174667,0.249032 -0.6878342,0.416544 -1.0755373,0.523335 -0.080346,0.02213 -0.162164,0.03852 -0.243246,0.05778 -0.3942292,0.07276 -0.8046696,0.08893 -1.1984018,0.0013 -0.072156,-0.01606 -0.1423845,-0.0398 -0.2135767,-0.0597 -0.157605,-0.06011 -0.2122366,-0.0731 -0.3554777,-0.157088 -0.012463,-0.0073 0.051417,0.02267 0.041637,0.01204 -0.034116,-0.0371 -0.079769,-0.06171 -0.117768,-0.09482 -0.07802,-0.06798 -0.10972,-0.105675 -0.1781792,-0.179375 -0.057726,-0.07747 -0.1349922,-0.135767 -0.2071147,-0.198737 0,0 -0.040744,-0.01731 -0.040744,-0.01731 v 0 c 0.017102,0.05792 0.011634,0.09221 0.065858,0.139423 0.062474,0.07343 0.089565,0.109547 0.1633871,0.176774 0.2269306,0.206658 0.5095605,0.348609 0.7972902,0.448847 0.071501,0.01921 0.1420943,0.04219 0.214504,0.05762 0.3955168,0.0843 0.8067183,0.06624 1.2016058,-0.0094 0.081069,-0.01986 0.1628736,-0.03693 0.2432066,-0.05959 0.3896572,-0.109889 0.7625987,-0.278286 1.0812887,-0.530512 0.1241529,-0.11457 0.1872906,-0.161574 0.2874184,-0.298036 0.1442495,-0.196597 0.2211135,-0.427517 0.2315015,-0.670093 -0.0034,-0.05486 -0.003,-0.110074 -0.01012,-0.164569 C 10.138942,13.229418 10.018997,13.00228 9.881845,12.796085 9.6990749,12.544421 9.5039258,12.330001 9.249809,12.147226 8.8855581,11.897706 8.4957755,11.692253 8.0656562,11.583899 7.9887672,11.565229 7.9122758,11.544839 7.8349884,11.527899 7.4397014,11.441239 7.0366854,11.398195 6.6400924,11.31877 6.401024,11.26438 6.1624627,11.203632 5.9391757,11.099877 c -0.024214,-0.01154 -0.09302,-0.05207 -0.072641,-0.03463 0.033076,0.02831 0.07514,0.04407 0.1115533,0.06794 0.020414,0.01338 -0.042696,-0.0237 -0.063508,-0.03645 C 5.85931,11.062877 5.8060871,11.024977 5.7595849,10.979636 5.6597569,10.87036 5.596684,10.740319 5.5681087,10.594457 5.5358147,10.391451 5.5406157,10.188196 5.6282367,9.9980199 5.6457457,9.9674379 5.6604127,9.9350429 5.6807647,9.9062749 5.7940791,9.746097 5.9852358,9.6653477 6.1601758,9.5941609 6.4629407,9.490394 6.7765574,9.4191967 7.0979309,9.411956 7.3819353,9.413816 7.6636687,9.441465 7.9442056,9.486056 8.2247016,9.52285 8.5071186,9.557527 8.7906349,9.544435 8.9972166,9.529036 9.2040248,9.4996618 9.3908159,9.4039621 9.5215614,9.3271931 9.6085876,9.2505024 9.657105,9.1023327 9.6771196,9.0216087 9.687042,8.9428125 9.6470864,8.8661285 9.6169801,8.8144433 9.5728747,8.7762328 9.52428,8.7418978 9.407115,8.6569794 9.2796844,8.5873586 9.1514881,8.5205849 9.058784,8.4759086 8.964719,8.4338892 8.867559,8.3997233 8.7661422,8.3646673 8.6643844,8.3306073 8.5631378,8.2950571 8.4624754,8.2606134 8.3610131,8.2284199 8.2616428,8.1902983 8.150667,8.1470258 8.0403918,8.1019459 7.9322885,8.051851 c 0,0 0.1295304,0.1030459 0.1295304,0.1030459 z" /></g></svg>
