<?xml version="1.0" encoding="UTF-8" standalone="no"?>
<!-- Created with Inkscape (http://www.inkscape.org/) -->

<svg
   width="1920"
   height="500"
   viewBox="0 0 1920 500"
   version="1.1"
   id="SVGRoot"
   sodipodi:docname="footer2.svg"
   xml:space="preserve"
   inkscape:version="1.2.1 (9c6d41e410, 2022-07-14)"
   inkscape:export-filename="footer2.svg"
   inkscape:export-xdpi="96"
   inkscape:export-ydpi="96"
   xmlns:inkscape="http://www.inkscape.org/namespaces/inkscape"
   xmlns:sodipodi="http://sodipodi.sourceforge.net/DTD/sodipodi-0.dtd"
   xmlns="http://www.w3.org/2000/svg"
   xmlns:svg="http://www.w3.org/2000/svg"><sodipodi:namedview
     id="namedview2518"
     pagecolor="#505050"
     bordercolor="#eeeeee"
     borderopacity="1"
     inkscape:showpageshadow="0"
     inkscape:pageopacity="0"
     inkscape:pagecheckerboard="0"
     inkscape:deskcolor="#505050"
     inkscape:document-units="px"
     showgrid="false"
     inkscape:zoom="0.70710678"
     inkscape:cx="977.92867"
     inkscape:cy="175.36248"
     inkscape:window-width="1920"
     inkscape:window-height="1017"
     inkscape:window-x="-8"
     inkscape:window-y="-8"
     inkscape:window-maximized="1"
     inkscape:current-layer="layer1" /><defs
     id="defs2513"><linearGradient
       id="linearGradient6706"
       inkscape:swatch="solid"><stop
         style="stop-color:#000000;stop-opacity:1;"
         offset="0"
         id="stop6704" /></linearGradient><linearGradient
       id="linearGradient4737"
       inkscape:swatch="solid"><stop
         style="stop-color:#000000;stop-opacity:1;"
         offset="0"
         id="stop4735" /></linearGradient></defs><g
     inkscape:label="Layer 1"
     inkscape:groupmode="layer"
     id="layer1"><path
       style="fill:none;fill-opacity:1;stroke:#ffffff;stroke-width:3;stroke-dasharray:none;stroke-opacity:1"
       d="m 0.56327146,359.90367 36.68110154,-78.05965 18.191663,12.16451 13.055921,-9.95437 36.135823,-23.94616 47.33544,-13.40011 24.00805,-33.10001 51.9143,-43.99412 42.07595,6.02134 34.77454,-33.41325 36.75458,-0.76572 14.10782,11.01593 44.17976,58.26437 55.19375,19.75211 31.86634,32.21246 38.05399,46.81337 70.47917,45.43052"
       id="path3889"
       sodipodi:nodetypes="ccccccccccccccccc" /><path
       style="fill:none;fill-opacity:1;stroke:#ffffff;stroke-width:3;stroke-dasharray:none;stroke-opacity:1"
       d="m 505.8653,286.10768 69.33252,-71.52804 62.55704,-16.98228 51.23366,-48.44922 51.88916,-9.2028 47.73185,28.88529 30.9382,-6.3694 47.40056,16.76117 70.78337,35.35724 L 960,284.05416"
       id="path6807"
       sodipodi:nodetypes="cccccccccc" /><path
       style="fill:none;fill-opacity:1;stroke:#ffffff;stroke-width:3;stroke-dasharray:none;stroke-opacity:1"
       d="M 850.78817,359.90367 960,284.05416 l 31.00724,-46.84817 80.31556,-31.20481 39.2915,-42.47838 34.8983,-2.34937 72.0242,21.40621 84.0281,67.42036 36.5071,51.16106 86.6472,58.74261"
       id="path6863"
       sodipodi:nodetypes="cccccccccc" /><path
       style="fill:none;fill-opacity:1;stroke:#ffffff;stroke-width:3;stroke-dasharray:none;stroke-opacity:1"
       d="m 399.77822,210.73643 35.3933,-28.15679 48.57297,-22.92095 53.27559,22.92095 45.61321,-3.35724 55.12157,18.37496"
       id="path6865"
       sodipodi:nodetypes="cccccc" /><path
       style="fill:none;fill-opacity:1;stroke:#ffffff;stroke-width:3;stroke-dasharray:none;stroke-opacity:1"
       d="M 151.96322,246.70789 71.028889,216.03185 55.126654,187.02268 0,165.55892"
       id="path6867"
       sodipodi:nodetypes="cccc" /><path
       style="fill:none;fill-opacity:1;stroke:#ffffff;stroke-width:3;stroke-dasharray:none;stroke-opacity:1"
       d="m 1319.8185,275.58053 74.3795,-54.07181 18.3773,-38.92908 53.2756,-22.92095 33.4751,8.80649 72.7666,-36.1977 51.605,27.39121 47.8923,46.34249 52.9662,-2.31374"
       id="path6869"
       sodipodi:nodetypes="ccccccccc" /><path
       style="fill:none;fill-opacity:1;stroke:#ffffff;stroke-width:3;stroke-dasharray:none;stroke-opacity:1"
       d="M 1424.7192,359.90367 1679.9432,250 l 44.6129,-46.31256 42.6708,-24.26808 47.623,21.20319 40.5439,8.19957"
       id="path6871"
       sodipodi:nodetypes="cccccc" /><path
       style="fill:none;fill-opacity:1;stroke:#ffffff;stroke-width:3;stroke-dasharray:none;stroke-opacity:1"
       d="m 1768.5648,360.40398 68.6682,-135.44952 36.3215,-32.26467 8.1677,-33.0311 38.2778,-7.32585"
       id="path6873"
       sodipodi:nodetypes="ccccc" /><path
       style="fill:none;fill-opacity:1;stroke:#ffffff;stroke-width:3;stroke-dasharray:none;stroke-opacity:1"
       d="m 1259.5509,216.28982 59.3856,-12.60238 39.4987,-22.75582 54.1401,1.64802"
       id="path6875"
       sodipodi:nodetypes="cccc" /><path
       style="fill:none;fill-opacity:1;stroke:#ffffff;stroke-width:3;stroke-dasharray:none;stroke-opacity:1"
       d="m 905.67968,198.57964 42.04545,-17.64802 29.20566,21.12616 31.12381,-19.47814 63.2682,23.42154"
       id="path6877" /></g><g
     inkscape:groupmode="layer"
     id="layer2"
     inkscape:label="Layer 2"><rect
       style="fill:#91c499;fill-opacity:1"
       id="rect2592"
       width="1920.4877"
       height="18.775717"
       x="0.56327146"
       y="350.51581" /><path
       style="fill:none;fill-opacity:1;stroke:#91c499;stroke-width:2;stroke-dasharray:none;stroke-opacity:1"
       d="m 72.007698,299.77488 v 50.74093"
       id="path6881" /><path
       style="fill:none;fill-opacity:1;stroke:#91c499;stroke-width:2;stroke-dasharray:none;stroke-opacity:1"
       d="m 116.26752,308.99956 v 41.51625"
       id="path6937" /><path
       style="fill:none;fill-opacity:1;stroke:#91c499;stroke-width:2;stroke-dasharray:none;stroke-opacity:1"
       d="m 148.07247,279.7182 v 70.79761"
       id="path6939" /><path
       style="fill:none;fill-opacity:1;stroke:#91c499;stroke-width:2;stroke-dasharray:none;stroke-opacity:1"
       d="m 181.83418,299.77488 v 50.74093"
       id="path6941" /><path
       style="fill:none;fill-opacity:1;stroke:#91c499;stroke-width:2;stroke-dasharray:none;stroke-opacity:1"
       d="m 222.30474,287.15168 v 63.36413"
       id="path6943" /><path
       style="fill:none;fill-opacity:1;stroke:#91c499;stroke-width:2;stroke-dasharray:none;stroke-opacity:1"
       d="m 327.13063,272.54636 v 77.96945"
       id="path6945" /><path
       style="fill:none;fill-opacity:1;stroke:#91c499;stroke-width:2;stroke-dasharray:none;stroke-opacity:1"
       d="m 427.42184,287.15168 v 63.36413"
       id="path6947" /><path
       style="fill:none;fill-opacity:1;stroke:#91c499;stroke-width:2;stroke-dasharray:none;stroke-opacity:1"
       d="m 377.7266,315.11701 v 35.3988"
       id="path6949" /><path
       style="fill:none;fill-opacity:1;stroke:#91c499;stroke-width:2;stroke-dasharray:none;stroke-opacity:1"
       d="m 524.8923,309.51437 v 41.00144"
       id="path6951" /><path
       style="fill:none;fill-opacity:1;stroke:#91c499;stroke-width:2;stroke-dasharray:none;stroke-opacity:1"
       d="m 548.11915,299.77488 v 50.74093"
       id="path6953" /><path
       style="fill:none;fill-opacity:1;stroke:#91c499;stroke-width:2;stroke-dasharray:none;stroke-opacity:1"
       d="m 643.81355,309.51437 v 41.00144"
       id="path6955" /><path
       style="fill:none;fill-opacity:1;stroke:#91c499;stroke-width:2;stroke-dasharray:none;stroke-opacity:1"
       d="m 711.97166,272.54636 v 77.96945"
       id="path6957" /><path
       style="fill:none;fill-opacity:1;stroke:#91c499;stroke-width:2;stroke-dasharray:none;stroke-opacity:1"
       d="m 681.99922,299.77488 v 50.74093"
       id="path6959" /><path
       style="fill:none;fill-opacity:1;stroke:#91c499;stroke-width:2;stroke-dasharray:none;stroke-opacity:1"
       d="m 752.75282,293.46786 v 57.04795"
       id="path6961" /><path
       style="fill:none;fill-opacity:1;stroke:#91c499;stroke-width:2;stroke-dasharray:none;stroke-opacity:1"
       d="m 808.22513,311.53108 v 38.98473"
       id="path6963" /><path
       style="fill:none;fill-opacity:1;stroke:#91c499;stroke-width:2;stroke-dasharray:none;stroke-opacity:1"
       d="m 878.82343,293.46786 v 57.04795"
       id="path6965" /><path
       style="fill:none;fill-opacity:1;stroke:#91c499;stroke-width:2;stroke-dasharray:none;stroke-opacity:1"
       d="m 913.84379,318.90095 v 31.61486"
       id="path6967" /><path
       style="fill:none;fill-opacity:1;stroke:#91c499;stroke-width:2;stroke-dasharray:none;stroke-opacity:1"
       d="m 941.78108,280.91496 v 69.60085"
       id="path6969" /><path
       style="fill:none;fill-opacity:1;stroke:#91c499;stroke-width:2;stroke-dasharray:none;stroke-opacity:1"
       d="m 1025.5797,306.09938 v 44.41643"
       id="path6971" /><path
       style="fill:none;fill-opacity:1;stroke:#91c499;stroke-width:2;stroke-dasharray:none;stroke-opacity:1"
       d="m 1090.1845,287.15168 v 63.36413"
       id="path6973" /><path
       style="fill:none;fill-opacity:1;stroke:#91c499;stroke-width:2;stroke-dasharray:none;stroke-opacity:1"
       d="m 1126.9279,306.09938 v 44.41643"
       id="path6975" /><path
       style="fill:none;fill-opacity:1;stroke:#91c499;stroke-width:2;stroke-dasharray:none;stroke-opacity:1"
       d="m 1238.3384,287.15168 v 63.36413"
       id="path6977" /><path
       style="fill:none;fill-opacity:1;stroke:#91c499;stroke-width:2;stroke-dasharray:none;stroke-opacity:1"
       d="m 1308.9367,318.83375 v 31.68206"
       id="path6983" /><path
       style="fill:none;fill-opacity:1;stroke:#91c499;stroke-width:2;stroke-dasharray:none;stroke-opacity:1"
       d="m 1370.3103,293.46786 v 57.04795"
       id="path6985" /><path
       style="fill:none;fill-opacity:1;stroke:#91c499;stroke-width:2;stroke-dasharray:none;stroke-opacity:1"
       d="m 1462.6192,276.79381 v 73.722"
       id="path7713" /><path
       style="fill:none;fill-opacity:1;stroke:#91c499;stroke-width:2;stroke-dasharray:none;stroke-opacity:1"
       d="m 1529.8321,302.19462 v 48.32119"
       id="path7715" /><path
       style="fill:none;fill-opacity:1;stroke:#91c499;stroke-width:2;stroke-dasharray:none;stroke-opacity:1"
       d="m 1496.5362,321.99183 v 28.52398"
       id="path7717" /><path
       style="fill:none;fill-opacity:1;stroke:#91c499;stroke-width:2;stroke-dasharray:none;stroke-opacity:1"
       d="m 1697.3982,293.46786 v 57.04795"
       id="path7719" /><path
       style="fill:none;fill-opacity:1;stroke:#91c499;stroke-width:2;stroke-dasharray:none;stroke-opacity:1"
       d="m 1747.1922,302.19462 v 48.32119"
       id="path7721" /><path
       style="fill:none;fill-opacity:1;stroke:#91c499;stroke-width:2;stroke-dasharray:none;stroke-opacity:1"
       d="m 1792.0072,276.79381 v 73.722"
       id="path7723" /><path
       style="fill:none;fill-opacity:1;stroke:#91c499;stroke-width:2;stroke-dasharray:none;stroke-opacity:1"
       d="m 1851.0242,302.19462 v 48.32119"
       id="path7725" /><path
       style="fill:none;fill-opacity:1;stroke:#91c499;stroke-width:2;stroke-dasharray:none;stroke-opacity:1"
       d="m 1894.1037,321.99183 v 28.52398"
       id="path7727" /><path
       style="fill:none;fill-opacity:1;stroke:#91c499;stroke-width:2;stroke-dasharray:none;stroke-opacity:1"
       d="m 60.839674,310.9429 11.168024,-11.16802 10.655664,10.65566"
       id="path7729" /><path
       style="fill:none;fill-opacity:1;stroke:#91c499;stroke-width:2;stroke-dasharray:none;stroke-opacity:1"
       d="m 60.616691,324.59978 11.391007,-11.39101 11.362771,10.94827"
       id="path7733"
       sodipodi:nodetypes="ccc" /><path
       style="fill:none;fill-opacity:1;stroke:#91c499;stroke-width:2;stroke-dasharray:none;stroke-opacity:1"
       d="m 60.132567,338.83992 11.875131,-10.79418 11.362771,10.25679"
       id="path7735" /><path
       style="fill:none;fill-opacity:1;stroke:#91c499;stroke-width:2;stroke-dasharray:none;stroke-opacity:1"
       d="m 105.00405,318.73541 11.16802,-11.16802 10.65567,10.65566"
       id="path7729-5" /><path
       style="fill:none;fill-opacity:1;stroke:#91c499;stroke-width:2;stroke-dasharray:none;stroke-opacity:1"
       d="m 104.78106,332.39229 11.39101,-11.39101 11.36277,10.94827"
       id="path7733-6"
       sodipodi:nodetypes="ccc" /><path
       style="fill:none;fill-opacity:1;stroke:#91c499;stroke-width:2;stroke-dasharray:none;stroke-opacity:1"
       d="m 104.29694,346.63243 11.87513,-10.79418 11.36277,10.25679"
       id="path7735-9" /><path
       style="fill:none;fill-opacity:1;stroke:#91c499;stroke-width:2;stroke-dasharray:none;stroke-opacity:1"
       d="m 136.92519,290.74634 11.16803,-11.16802 10.65566,10.65566"
       id="path7729-4" /><path
       style="fill:none;fill-opacity:1;stroke:#91c499;stroke-width:2;stroke-dasharray:none;stroke-opacity:1"
       d="m 136.70221,304.40322 11.39101,-11.39101 11.36277,10.94827"
       id="path7733-9"
       sodipodi:nodetypes="ccc" /><path
       style="fill:none;fill-opacity:1;stroke:#91c499;stroke-width:2;stroke-dasharray:none;stroke-opacity:1"
       d="m 136.21809,318.64336 11.87513,-10.79418 11.36277,10.25679"
       id="path7735-0" /><path
       style="fill:none;fill-opacity:1;stroke:#91c499;stroke-width:2;stroke-dasharray:none;stroke-opacity:1"
       d="m 136.57165,332.22355 11.87513,-10.79418 11.36277,10.2568"
       id="path7735-95" /><path
       style="fill:none;fill-opacity:1;stroke:#91c499;stroke-width:2;stroke-dasharray:none;stroke-opacity:1"
       d="m 170.6869,309.91286 11.16803,-11.16802 10.65566,10.65566"
       id="path7729-2" /><path
       style="fill:none;fill-opacity:1;stroke:#91c499;stroke-width:2;stroke-dasharray:none;stroke-opacity:1"
       d="M 170.46392,323.56974 181.85493,312.17873 193.2177,323.127"
       id="path7733-5"
       sodipodi:nodetypes="ccc" /><path
       style="fill:none;fill-opacity:1;stroke:#91c499;stroke-width:2;stroke-dasharray:none;stroke-opacity:1"
       d="m 169.9798,337.80988 11.87513,-10.79418 11.36277,10.25679"
       id="path7735-06" /><path
       style="fill:none;fill-opacity:1;stroke:#91c499;stroke-width:2;stroke-dasharray:none;stroke-opacity:1"
       d="m 211.15746,297.496 11.16803,-11.16802 10.65566,10.65566"
       id="path7729-20" /><path
       style="fill:none;fill-opacity:1;stroke:#91c499;stroke-width:2;stroke-dasharray:none;stroke-opacity:1"
       d="m 210.93448,311.15288 11.39101,-11.39101 11.36277,10.94827"
       id="path7733-58"
       sodipodi:nodetypes="ccc" /><path
       style="fill:none;fill-opacity:1;stroke:#91c499;stroke-width:2;stroke-dasharray:none;stroke-opacity:1"
       d="m 210.45036,325.39302 11.87513,-10.79418 11.36277,10.25679"
       id="path7735-97" /><path
       style="fill:none;fill-opacity:1;stroke:#91c499;stroke-width:2;stroke-dasharray:none;stroke-opacity:1"
       d="m 210.45036,339.88425 11.87513,-10.79418 11.36277,10.25679"
       id="path7735-3" /><path
       style="fill:none;fill-opacity:1;stroke:#91c499;stroke-width:2;stroke-dasharray:none;stroke-opacity:1"
       d="m 315.9626,283.71438 11.16803,-11.16802 10.65566,10.65566"
       id="path7729-6" /><path
       style="fill:none;fill-opacity:1;stroke:#91c499;stroke-width:2;stroke-dasharray:none;stroke-opacity:1"
       d="m 315.73962,297.37126 11.39101,-11.39101 11.36277,10.94827"
       id="path7733-7"
       sodipodi:nodetypes="ccc" /><path
       style="fill:none;fill-opacity:1;stroke:#91c499;stroke-width:2;stroke-dasharray:none;stroke-opacity:1"
       d="m 315.2555,311.6114 11.87513,-10.79418 11.36277,10.25679"
       id="path7735-6" /><path
       style="fill:none;fill-opacity:1;stroke:#91c499;stroke-width:2;stroke-dasharray:none;stroke-opacity:1"
       d="m 315.73834,326.68147 11.39101,-11.39101 11.36277,10.94827"
       id="path7733-79"
       sodipodi:nodetypes="ccc" /><path
       style="fill:none;fill-opacity:1;stroke:#91c499;stroke-width:2;stroke-dasharray:none;stroke-opacity:1"
       d="m 315.25422,340.92161 11.87513,-10.79418 11.36277,10.25679"
       id="path7735-8" /><path
       style="fill:none;fill-opacity:1;stroke:#91c499;stroke-width:2;stroke-dasharray:none;stroke-opacity:1"
       d="m 366.55857,326.28503 11.16803,-11.16802 10.65566,10.65566"
       id="path7729-27" /><path
       style="fill:none;fill-opacity:1;stroke:#91c499;stroke-width:2;stroke-dasharray:none;stroke-opacity:1"
       d="m 366.33559,339.94191 11.39101,-11.39101 11.36277,10.94827"
       id="path7733-57"
       sodipodi:nodetypes="ccc" /><path
       style="fill:none;fill-opacity:1;stroke:#91c499;stroke-width:2;stroke-dasharray:none;stroke-opacity:1"
       d="m 416.25381,298.3197 11.16803,-11.16802 10.65566,10.65566"
       id="path7729-24" /><path
       style="fill:none;fill-opacity:1;stroke:#91c499;stroke-width:2;stroke-dasharray:none;stroke-opacity:1"
       d="m 416.03083,311.97658 11.39101,-11.39101 11.36277,10.94827"
       id="path7733-1"
       sodipodi:nodetypes="ccc" /><path
       style="fill:none;fill-opacity:1;stroke:#91c499;stroke-width:2;stroke-dasharray:none;stroke-opacity:1"
       d="m 415.54671,326.21672 11.87513,-10.79418 11.36277,10.25679"
       id="path7735-5" /><path
       style="fill:none;fill-opacity:1;stroke:#91c499;stroke-width:2;stroke-dasharray:none;stroke-opacity:1"
       d="m 536.95112,310.9429 11.16803,-11.16802 10.65566,10.65566"
       id="path7729-3" /><path
       style="fill:none;fill-opacity:1;stroke:#91c499;stroke-width:2;stroke-dasharray:none;stroke-opacity:1"
       d="m 536.72814,324.59978 11.39101,-11.39101 11.36277,10.94827"
       id="path7733-2"
       sodipodi:nodetypes="ccc" /><path
       style="fill:none;fill-opacity:1;stroke:#91c499;stroke-width:2;stroke-dasharray:none;stroke-opacity:1"
       d="m 536.24402,338.83992 11.87513,-10.79418 11.36277,10.25679"
       id="path7735-82" /><path
       style="fill:none;fill-opacity:1;stroke:#91c499;stroke-width:2;stroke-dasharray:none;stroke-opacity:1"
       d="m 513.72427,320.68239 11.16803,-11.16802 10.65566,10.65566"
       id="path7729-45" /><path
       style="fill:none;fill-opacity:1;stroke:#91c499;stroke-width:2;stroke-dasharray:none;stroke-opacity:1"
       d="m 513.50129,334.33927 11.39101,-11.39101 11.36277,10.94827"
       id="path7733-64"
       sodipodi:nodetypes="ccc" /><path
       style="fill:none;fill-opacity:1;stroke:#91c499;stroke-width:2;stroke-dasharray:none;stroke-opacity:1"
       d="m 513.01717,348.57941 11.87513,-10.79418 11.36277,10.25679"
       id="path7735-7" /><path
       style="fill:none;fill-opacity:1;stroke:#91c499;stroke-width:2;stroke-dasharray:none;stroke-opacity:1"
       d="m 632.64552,320.68239 11.16803,-11.16802 10.65566,10.65566"
       id="path7729-1" /><path
       style="fill:none;fill-opacity:1;stroke:#91c499;stroke-width:2;stroke-dasharray:none;stroke-opacity:1"
       d="m 632.42254,334.33927 11.39101,-11.39101 11.36277,10.94827"
       id="path7733-59"
       sodipodi:nodetypes="ccc" /><path
       style="fill:none;fill-opacity:1;stroke:#91c499;stroke-width:2;stroke-dasharray:none;stroke-opacity:1"
       d="m 631.93842,348.57941 11.87513,-10.79418 11.36277,10.25679"
       id="path7735-4" /><path
       style="fill:none;fill-opacity:1;stroke:#91c499;stroke-width:2;stroke-dasharray:none;stroke-opacity:1"
       d="m 670.83119,310.9429 11.16803,-11.16802 10.65566,10.65566"
       id="path7729-8" /><path
       style="fill:none;fill-opacity:1;stroke:#91c499;stroke-width:2;stroke-dasharray:none;stroke-opacity:1"
       d="m 670.60821,324.59978 11.39101,-11.39101 11.36277,10.94827"
       id="path7733-69"
       sodipodi:nodetypes="ccc" /><path
       style="fill:none;fill-opacity:1;stroke:#91c499;stroke-width:2;stroke-dasharray:none;stroke-opacity:1"
       d="m 670.12409,338.83992 11.87513,-10.79418 11.36277,10.25679"
       id="path7735-96" /><path
       style="fill:none;fill-opacity:1;stroke:#91c499;stroke-width:2;stroke-dasharray:none;stroke-opacity:1"
       d="m 700.80363,283.71438 11.16803,-11.16802 10.65566,10.65566"
       id="path7729-12" /><path
       style="fill:none;fill-opacity:1;stroke:#91c499;stroke-width:2;stroke-dasharray:none;stroke-opacity:1"
       d="m 700.58065,297.37126 11.39101,-11.39101 11.36277,10.94827"
       id="path7733-96"
       sodipodi:nodetypes="ccc" /><path
       style="fill:none;fill-opacity:1;stroke:#91c499;stroke-width:2;stroke-dasharray:none;stroke-opacity:1"
       d="m 700.09653,311.6114 11.87513,-10.79418 11.36277,10.25679"
       id="path7735-62" /><path
       style="fill:none;fill-opacity:1;stroke:#91c499;stroke-width:2;stroke-dasharray:none;stroke-opacity:1"
       d="m 700.58065,325.64212 11.39101,-11.39101 11.36277,10.94827"
       id="path7733-73"
       sodipodi:nodetypes="ccc" /><path
       style="fill:none;fill-opacity:1;stroke:#91c499;stroke-width:2;stroke-dasharray:none;stroke-opacity:1"
       d="m 700.09653,339.88226 11.87513,-10.79418 11.36277,10.25679"
       id="path7735-58" /><path
       style="fill:none;fill-opacity:1;stroke:#91c499;stroke-width:2;stroke-dasharray:none;stroke-opacity:1"
       d="m 741.58479,304.63588 11.16803,-11.16802 10.65566,10.65566"
       id="path7729-120" /><path
       style="fill:none;fill-opacity:1;stroke:#91c499;stroke-width:2;stroke-dasharray:none;stroke-opacity:1"
       d="m 741.36181,318.29276 11.39101,-11.39101 11.36277,10.94827"
       id="path7733-3"
       sodipodi:nodetypes="ccc" /><path
       style="fill:none;fill-opacity:1;stroke:#91c499;stroke-width:2;stroke-dasharray:none;stroke-opacity:1"
       d="m 740.87769,332.5329 11.87513,-10.79418 11.36277,10.25679"
       id="path7735-39" /><path
       style="fill:none;fill-opacity:1;stroke:#91c499;stroke-width:2;stroke-dasharray:none;stroke-opacity:1"
       d="m 797.0571,322.6991 11.16803,-11.16802 10.65566,10.65566"
       id="path7729-81" /><path
       style="fill:none;fill-opacity:1;stroke:#91c499;stroke-width:2;stroke-dasharray:none;stroke-opacity:1"
       d="m 796.83412,336.35598 11.39101,-11.39101 11.36277,10.94827"
       id="path7733-95"
       sodipodi:nodetypes="ccc" /><path
       style="fill:none;fill-opacity:1;stroke:#91c499;stroke-width:2;stroke-dasharray:none;stroke-opacity:1"
       d="m 867.6554,304.63588 11.16803,-11.16802 10.65566,10.65566"
       id="path7729-15" /><path
       style="fill:none;fill-opacity:1;stroke:#91c499;stroke-width:2;stroke-dasharray:none;stroke-opacity:1"
       d="m 867.43242,318.29276 11.39101,-11.39101 11.36277,10.94827"
       id="path7733-0"
       sodipodi:nodetypes="ccc" /><path
       style="fill:none;fill-opacity:1;stroke:#91c499;stroke-width:2;stroke-dasharray:none;stroke-opacity:1"
       d="m 866.9483,332.5329 11.87513,-10.79418 11.36277,10.25679"
       id="path7735-34" /><path
       style="fill:none;fill-opacity:1;stroke:#91c499;stroke-width:2;stroke-dasharray:none;stroke-opacity:1"
       d="m 902.67576,330.06897 11.16803,-11.16802 10.65566,10.65566"
       id="path7729-62" /><path
       style="fill:none;fill-opacity:1;stroke:#91c499;stroke-width:2;stroke-dasharray:none;stroke-opacity:1"
       d="m 902.45278,343.72585 11.39101,-11.39101 11.36277,10.94827"
       id="path7733-72"
       sodipodi:nodetypes="ccc" /><path
       style="fill:none;fill-opacity:1;stroke:#91c499;stroke-width:2;stroke-dasharray:none;stroke-opacity:1"
       d="m 930.61305,292.08298 11.16803,-11.16802 10.65566,10.65566"
       id="path7729-19" /><path
       style="fill:none;fill-opacity:1;stroke:#91c499;stroke-width:2;stroke-dasharray:none;stroke-opacity:1"
       d="m 930.39007,305.73986 11.39101,-11.39101 11.36277,10.94827"
       id="path7733-35"
       sodipodi:nodetypes="ccc" /><path
       style="fill:none;fill-opacity:1;stroke:#91c499;stroke-width:2;stroke-dasharray:none;stroke-opacity:1"
       d="m 929.90595,319.98 11.87513,-10.79418 11.36277,10.25679"
       id="path7735-53" /><path
       style="fill:none;fill-opacity:1;stroke:#91c499;stroke-width:2;stroke-dasharray:none;stroke-opacity:1"
       d="m 929.90595,333.41389 11.87513,-10.79418 11.36277,10.25679"
       id="path7735-77" /><path
       style="fill:none;fill-opacity:1;stroke:#91c499;stroke-width:2;stroke-dasharray:none;stroke-opacity:1"
       d="m 1014.4117,317.2674 11.168,-11.16802 10.6556,10.65566"
       id="path7729-23" /><path
       style="fill:none;fill-opacity:1;stroke:#91c499;stroke-width:2;stroke-dasharray:none;stroke-opacity:1"
       d="m 1014.1887,330.92428 11.391,-11.39101 11.3627,10.94827"
       id="path7733-25"
       sodipodi:nodetypes="ccc" /><path
       style="fill:none;fill-opacity:1;stroke:#91c499;stroke-width:2;stroke-dasharray:none;stroke-opacity:1"
       d="m 1013.7046,345.16442 11.8751,-10.79418 11.3627,10.25679"
       id="path7735-03" /><path
       style="fill:none;fill-opacity:1;stroke:#91c499;stroke-width:2;stroke-dasharray:none;stroke-opacity:1"
       d="m 1079.0165,298.3197 11.168,-11.16802 10.6557,10.65566"
       id="path7729-48" /><path
       style="fill:none;fill-opacity:1;stroke:#91c499;stroke-width:2;stroke-dasharray:none;stroke-opacity:1"
       d="m 1078.7935,311.97658 11.391,-11.39101 11.3628,10.94827"
       id="path7733-8"
       sodipodi:nodetypes="ccc" /><path
       style="fill:none;fill-opacity:1;stroke:#91c499;stroke-width:2;stroke-dasharray:none;stroke-opacity:1"
       d="m 1078.3094,326.21672 11.8751,-10.79418 11.3628,10.25679"
       id="path7735-50" /><path
       style="fill:none;fill-opacity:1;stroke:#91c499;stroke-width:2;stroke-dasharray:none;stroke-opacity:1"
       d="m 1115.7599,317.2674 11.168,-11.16802 10.6557,10.65566"
       id="path7729-0" /><path
       style="fill:none;fill-opacity:1;stroke:#91c499;stroke-width:2;stroke-dasharray:none;stroke-opacity:1"
       d="m 1115.5369,330.92428 11.391,-11.39101 11.3628,10.94827"
       id="path7733-08"
       sodipodi:nodetypes="ccc" /><path
       style="fill:none;fill-opacity:1;stroke:#91c499;stroke-width:2;stroke-dasharray:none;stroke-opacity:1"
       d="m 1115.0528,345.16442 11.8751,-10.79418 11.3628,10.25679"
       id="path7735-66" /><path
       style="fill:none;fill-opacity:1;stroke:#91c499;stroke-width:2;stroke-dasharray:none;stroke-opacity:1"
       d="m 1227.1704,298.3197 11.168,-11.16802 10.6557,10.65566"
       id="path7729-25" /><path
       style="fill:none;fill-opacity:1;stroke:#91c499;stroke-width:2;stroke-dasharray:none;stroke-opacity:1"
       d="m 1226.9474,311.97658 11.391,-11.39101 11.3628,10.94827"
       id="path7733-06"
       sodipodi:nodetypes="ccc" /><path
       style="fill:none;fill-opacity:1;stroke:#91c499;stroke-width:2;stroke-dasharray:none;stroke-opacity:1"
       d="m 1226.4633,326.21672 11.8751,-10.79418 11.3628,10.25679"
       id="path7735-2" /><path
       style="fill:none;fill-opacity:1;stroke:#91c499;stroke-width:2;stroke-dasharray:none;stroke-opacity:1"
       d="m 1226.4633,339.65061 11.8751,-10.79418 11.3628,10.25679"
       id="path7735-40" /><path
       style="fill:none;fill-opacity:1;stroke:#91c499;stroke-width:2;stroke-dasharray:none;stroke-opacity:1"
       d="m 1297.7687,330.00177 11.168,-11.16802 10.6557,10.65566"
       id="path7729-274" /><path
       style="fill:none;fill-opacity:1;stroke:#91c499;stroke-width:2;stroke-dasharray:none;stroke-opacity:1"
       d="m 1297.5457,343.65865 11.391,-11.39101 11.3628,10.94827"
       id="path7733-34"
       sodipodi:nodetypes="ccc" /><path
       style="fill:none;fill-opacity:1;stroke:#91c499;stroke-width:2;stroke-dasharray:none;stroke-opacity:1"
       d="m 1359.1423,304.63588 11.168,-11.16802 10.6557,10.65566"
       id="path7729-34" /><path
       style="fill:none;fill-opacity:1;stroke:#91c499;stroke-width:2;stroke-dasharray:none;stroke-opacity:1"
       d="m 1358.9193,318.29276 11.391,-11.39101 11.3628,10.94827"
       id="path7733-17"
       sodipodi:nodetypes="ccc" /><path
       style="fill:none;fill-opacity:1;stroke:#91c499;stroke-width:2;stroke-dasharray:none;stroke-opacity:1"
       d="m 1358.4352,332.5329 11.8751,-10.79418 11.3628,10.25679"
       id="path7735-976" /><path
       style="fill:none;fill-opacity:1;stroke:#91c499;stroke-width:2;stroke-dasharray:none;stroke-opacity:1"
       d="m 1451.4512,287.96183 11.168,-11.16802 10.6557,10.65566"
       id="path7729-63" /><path
       style="fill:none;fill-opacity:1;stroke:#91c499;stroke-width:2;stroke-dasharray:none;stroke-opacity:1"
       d="m 1451.2282,301.61871 11.391,-11.39101 11.3628,10.94827"
       id="path7733-32"
       sodipodi:nodetypes="ccc" /><path
       style="fill:none;fill-opacity:1;stroke:#91c499;stroke-width:2;stroke-dasharray:none;stroke-opacity:1"
       d="m 1450.7441,315.85885 11.8751,-10.79418 11.3628,10.25679"
       id="path7735-70" /><path
       style="fill:none;fill-opacity:1;stroke:#91c499;stroke-width:2;stroke-dasharray:none;stroke-opacity:1"
       d="m 1451.2282,329.88957 11.391,-11.39101 11.3628,10.94827"
       id="path7733-11"
       sodipodi:nodetypes="ccc" /><path
       style="fill:none;fill-opacity:1;stroke:#91c499;stroke-width:2;stroke-dasharray:none;stroke-opacity:1"
       d="m 1450.7441,344.12971 11.8751,-10.79418 11.3628,10.25679"
       id="path7735-506" /><path
       style="fill:none;fill-opacity:1;stroke:#91c499;stroke-width:2;stroke-dasharray:none;stroke-opacity:1"
       d="m 1485.3682,333.15985 11.168,-11.16802 10.6557,10.65566"
       id="path7729-16" /><path
       style="fill:none;fill-opacity:1;stroke:#91c499;stroke-width:2;stroke-dasharray:none;stroke-opacity:1"
       d="m 1485.1452,346.81673 11.391,-11.39101 11.3628,10.94827"
       id="path7733-12"
       sodipodi:nodetypes="ccc" /><path
       style="fill:none;fill-opacity:1;stroke:#91c499;stroke-width:2;stroke-dasharray:none;stroke-opacity:1"
       d="m 1518.6641,313.36264 11.168,-11.16802 10.6557,10.65566"
       id="path7729-11" /><path
       style="fill:none;fill-opacity:1;stroke:#91c499;stroke-width:2;stroke-dasharray:none;stroke-opacity:1"
       d="m 1518.4411,327.01952 11.391,-11.39101 11.3628,10.94827"
       id="path7733-04"
       sodipodi:nodetypes="ccc" /><path
       style="fill:none;fill-opacity:1;stroke:#91c499;stroke-width:2;stroke-dasharray:none;stroke-opacity:1"
       d="m 1517.957,341.25966 11.8751,-10.79418 11.3628,10.25679"
       id="path7735-01" /><path
       style="fill:none;fill-opacity:1;stroke:#91c499;stroke-width:2;stroke-dasharray:none;stroke-opacity:1"
       d="m 1686.2302,304.63588 11.168,-11.16802 10.6557,10.65566"
       id="path7729-199" /><path
       style="fill:none;fill-opacity:1;stroke:#91c499;stroke-width:2;stroke-dasharray:none;stroke-opacity:1"
       d="m 1686.0072,318.29276 11.391,-11.39101 11.3628,10.94827"
       id="path7733-10"
       sodipodi:nodetypes="ccc" /><path
       style="fill:none;fill-opacity:1;stroke:#91c499;stroke-width:2;stroke-dasharray:none;stroke-opacity:1"
       d="m 1685.5231,332.5329 11.8751,-10.79418 11.3628,10.25679"
       id="path7735-46" /><path
       style="fill:none;fill-opacity:1;stroke:#91c499;stroke-width:2;stroke-dasharray:none;stroke-opacity:1"
       d="m 1736.0242,313.36264 11.168,-11.16802 10.6557,10.65566"
       id="path7729-08" /><path
       style="fill:none;fill-opacity:1;stroke:#91c499;stroke-width:2;stroke-dasharray:none;stroke-opacity:1"
       d="m 1735.8012,327.01952 11.391,-11.39101 11.3628,10.94827"
       id="path7733-36"
       sodipodi:nodetypes="ccc" /><path
       style="fill:none;fill-opacity:1;stroke:#91c499;stroke-width:2;stroke-dasharray:none;stroke-opacity:1"
       d="m 1735.3171,341.25966 11.8751,-10.79418 11.3628,10.25679"
       id="path7735-84" /><path
       style="fill:none;fill-opacity:1;stroke:#91c499;stroke-width:2;stroke-dasharray:none;stroke-opacity:1"
       d="m 1780.8392,287.96183 11.168,-11.16802 10.6557,10.65566"
       id="path7729-49" /><path
       style="fill:none;fill-opacity:1;stroke:#91c499;stroke-width:2;stroke-dasharray:none;stroke-opacity:1"
       d="m 1780.6162,301.61871 11.391,-11.39101 11.3628,10.94827"
       id="path7733-89"
       sodipodi:nodetypes="ccc" /><path
       style="fill:none;fill-opacity:1;stroke:#91c499;stroke-width:2;stroke-dasharray:none;stroke-opacity:1"
       d="m 1780.1321,315.85885 11.8751,-10.79418 11.3628,10.25679"
       id="path7735-73" /><path
       style="fill:none;fill-opacity:1;stroke:#91c499;stroke-width:2;stroke-dasharray:none;stroke-opacity:1"
       d="m 1780.6162,329.88957 11.391,-11.39101 11.3628,10.94827"
       id="path7733-75"
       sodipodi:nodetypes="ccc" /><path
       style="fill:none;fill-opacity:1;stroke:#91c499;stroke-width:2;stroke-dasharray:none;stroke-opacity:1"
       d="m 1780.1321,344.12971 11.8751,-10.79418 11.3628,10.25679"
       id="path7735-56" /><path
       style="fill:none;fill-opacity:1;stroke:#91c499;stroke-width:2;stroke-dasharray:none;stroke-opacity:1"
       d="m 1839.8562,313.36264 11.168,-11.16802 10.6557,10.65566"
       id="path7729-9" /><path
       style="fill:none;fill-opacity:1;stroke:#91c499;stroke-width:2;stroke-dasharray:none;stroke-opacity:1"
       d="m 1839.6332,327.01952 11.391,-11.39101 11.3628,10.94827"
       id="path7733-03"
       sodipodi:nodetypes="ccc" /><path
       style="fill:none;fill-opacity:1;stroke:#91c499;stroke-width:2;stroke-dasharray:none;stroke-opacity:1"
       d="m 1839.1491,341.25966 11.8751,-10.79418 11.3628,10.25679"
       id="path7735-64" /><path
       style="fill:none;fill-opacity:1;stroke:#91c499;stroke-width:2;stroke-dasharray:none;stroke-opacity:1"
       d="m 1882.9357,333.15985 11.168,-11.16802 10.6557,10.65566"
       id="path7729-638" /><path
       style="fill:none;fill-opacity:1;stroke:#91c499;stroke-width:2;stroke-dasharray:none;stroke-opacity:1"
       d="m 1882.7127,346.81673 11.391,-11.39101 11.3628,10.94827"
       id="path7733-4"
       sodipodi:nodetypes="ccc" /></g></svg>
